# xmcd
#
# Track frame offsets:
#	150
#	13293
#	26191
#	38162
#	52880
#	63960
#	74585
#	85483
#	101363
#	111804
#	125390
#	136603
#	149955
#	162824
#	173261
#
# Disc length: 2462 seconds
#
# Revision: 1
# Processed by: cddbd v1.5.2PL0 Copyright (c) Steve Scherf et al.
# Submitted via: audiograbber 1.83.01
#
DISCID=cc099c0f
DTITLE=Frankie Laine - Country All Stars CD 4
DYEAR=2008
DGENRE=Country
TTITLE0=Granada
TTITLE1=The Cry Of The Wild Goose
TTITLE2=High Noon
TTITLE3=Jealousy
TTITLE4=My Friend
TTITLE5=Sixteen Tons
TTITLE6=A Woman In Love
TTITLE7=That Lucky Old Sun
TTITLE8=All Of Me
TTITLE9=Cool Water
TTITLE10=Answer Me
TTITLE11=Don't Blame Me
TTITLE12=Georgia On My Mind
TTITLE13=Hold Me
TTITLE14=Strange Lady In Town
EXTD=
EXTT0=
EXTT1=
EXTT2=
EXTT3=
EXTT4=
EXTT5=
EXTT6=
EXTT7=
EXTT8=
EXTT9=
EXTT10=
EXTT11=
EXTT12=
EXTT13=
EXTT14=
PLAYORDER=
